<?xml version="1.0" standalone="no"?>
<!DOCTYPE svg PUBLIC "-//W3C//DTD SVG 20010904//EN"
 "http://www.w3.org/TR/2001/REC-SVG-20010904/DTD/svg10.dtd">
<svg version="1.0" xmlns="http://www.w3.org/2000/svg"
 width="612.000000pt" height="408.000000pt" viewBox="0 0 612.000000 408.000000"
 preserveAspectRatio="xMidYMid meet">

<g transform="translate(0.000000,408.000000) scale(0.100000,-0.100000)"
fill="#000000" stroke="none">
<path d="M2310 3820 c-648 -89 -1090 -343 -1349 -772 l-23 -38 310 0 310 0 89
88 c132 131 309 243 505 321 77 30 270 86 328 95 19 3 85 13 145 23 167 27
503 24 695 -6 459 -70 866 -222 1237 -463 88 -57 93 -59 150 -56 l58 3 -105
86 c-357 293 -779 503 -1270 632 -94 25 -190 45 -365 74 -106 18 -613 27 -715
13z m-1174 -684 l35 -35 -28 -4 c-25 -4 -25 -4 6 -6 19 0 31 -4 27 -8 -3 -4 6
-12 21 -19 24 -11 13 -12 -85 -13 -88 -1 -112 2 -106 12 25 40 49 65 58 60 6
-3 8 -3 4 2 -9 10 9 45 23 45 6 0 26 -15 45 -34z"/>
<path d="M2760 3470 c-101 -9 -315 -49 -390 -74 l-45 -15 50 6 c28 2 68 9 91
13 78 17 320 32 414 25 83 -6 255 -26 345 -41 67 -11 242 -57 341 -90 186 -62
338 -130 510 -231 l91 -53 174 2 174 3 -59 35 c-32 19 -72 43 -90 54 -42 25
-263 136 -271 136 -4 0 -38 14 -77 31 -38 17 -77 32 -86 34 -10 2 -48 14 -87
28 -140 50 -345 98 -540 127 -96 14 -429 20 -545 10z m480 -21 c266 -28 567
-111 845 -234 131 -58 191 -87 260 -125 l80 -45 -128 -3 -129 -3 -88 51 c-253
145 -526 247 -815 305 -148 30 -177 33 -340 42 -79 4 -122 9 -110 14 26 11
317 9 425 -2z"/>
<path d="M2075 2814 c-183 -33 -283 -113 -321 -256 -19 -73 -17 -125 6 -201
24 -76 79 -140 151 -175 95 -46 157 -52 579 -52 240 0 410 -4 432 -10 47 -13
68 -43 68 -95 0 -52 -21 -82 -68 -95 -22 -6 -191 -10 -432 -10 l-395 0 -22
-33 c-12 -17 -58 -77 -102 -132 -44 -55 -80 -103 -81 -107 0 -5 234 -8 519 -8
574 0 623 4 738 60 115 57 168 143 180 290 7 97 -13 170 -63 228 -44 52 -91
77 -191 103 -69 17 -113 19 -463 19 -213 0 -408 3 -434 6 -61 9 -96 41 -96 89
0 47 14 71 50 90 24 12 85 15 369 15 l339 0 37 50 c67 91 157 152 335 228 42
18 -1034 14 -1135 -4z m1210 -681 c3 -14 4 -27 2 -29 -2 -2 -60 -7 -129 -11
-98 -5 -127 -3 -133 7 -6 10 -4 12 10 6 14 -5 16 -4 7 7 -9 11 -5 13 21 10 25
-4 29 -2 17 6 -12 9 -9 11 15 12 23 0 26 2 11 8 -15 6 -11 10 23 26 23 10 41
21 41 25 0 4 10 11 22 17 18 8 27 4 54 -25 18 -19 35 -46 39 -59z"/>
<path d="M3205 2200 c3 -5 8 -10 11 -10 2 0 4 5 4 10 0 6 -5 10 -11 10 -5 0
-7 -4 -4 -10z"/>
<path d="M3337 2814 c-214 -39 -366 -128 -460 -272 -35 -52 -77 -145 -77 -169
0 -2 46 -3 103 -4 66 0 126 -7 172 -19 63 -17 71 -17 80 -3 64 98 115 139 213
172 56 19 85 21 342 21 216 0 281 3 284 13 34 117 99 198 196 241 33 15 60 29
60 32 0 2 -188 4 -417 3 -312 -1 -438 -4 -496 -15z"/>
<path d="M1059 2809 c-73 -10 -209 -61 -273 -100 -131 -82 -232 -228 -256
-370 -53 -311 153 -588 500 -675 67 -17 115 -19 444 -19 l370 0 102 130 c57
72 103 133 104 137 0 4 -208 8 -462 10 -462 3 -463 3 -522 27 -85 34 -169 118
-190 190 -35 119 -11 207 79 296 51 50 72 64 135 85 71 23 89 25 352 28 l277
4 6 31 c16 77 83 156 175 206 l55 31 -420 -1 c-231 -1 -445 -5 -476 -10z m516
-8 c275 -2 289 -3 265 -19 -59 -40 -124 -132 -134 -189 -1 -7 -4 -14 -7 -16
-2 -3 -125 -7 -274 -10 -151 -4 -288 -11 -310 -18 -72 -20 -155 -71 -196 -120
l-40 -48 -77 33 c-43 18 -98 44 -122 57 -25 13 -48 22 -52 21 -3 -1 -8 5 -11
12 -11 28 109 149 200 203 105 61 292 103 433 97 19 -1 166 -3 325 -3z"/>
<path d="M4289 2796 c-143 -42 -215 -104 -250 -217 -23 -75 -24 -150 -2 -220
30 -99 93 -157 213 -200 63 -22 79 -23 510 -28 478 -6 475 -6 499 -58 25 -54
6 -114 -44 -138 -28 -13 -93 -15 -439 -15 l-405 0 -63 -82 c-35 -44 -82 -106
-106 -137 l-42 -56 67 -3 c38 -2 284 -1 548 1 445 3 485 5 550 24 151 44 232
122 261 252 44 199 -27 333 -207 393 -60 20 -92 22 -514 27 -470 6 -482 7
-505 51 -18 34 -12 97 11 119 39 36 104 41 543 41 l424 0 78 102 c44 56 89
117 102 135 l23 33 -588 -1 c-577 0 -589 -1 -664 -23z m1011 -3 c0 -12 -111
-113 -185 -169 l-70 -52 -310 -4 c-290 -3 -313 -5 -345 -24 -46 -26 -62 -59
-57 -112 6 -52 36 -88 89 -104 21 -6 35 -15 31 -19 -13 -11 -254 -79 -284 -79
-44 0 -103 75 -119 150 -27 125 6 249 84 316 54 47 83 62 169 84 65 17 115 19
535 19 254 1 462 -2 462 -6z"/>
<path d="M2810 2083 c0 -27 47 -123 63 -129 8 -3 30 1 50 9 70 30 57 118 -20
130 -68 12 -93 9 -93 -10z"/>
<path d="M3341 1893 c-17 -65 -53 -124 -102 -167 l-42 -35 26 -10 c87 -33 191
-41 541 -41 l351 1 106 137 106 137 -461 6 c-254 3 -473 9 -487 13 -25 7 -27
5 -38 -41z"/>
<path d="M527 1443 c-14 -13 -7 -71 9 -77 29 -11 81 -6 94 9 10 12 10 15 -2
15 -8 0 -19 -5 -25 -11 -7 -7 -23 -9 -38 -5 -20 5 -26 12 -23 29 2 18 10 23
46 25 23 2 40 7 37 13 -7 10 -88 13 -98 2z"/>
<path d="M682 1408 c2 -34 7 -44 23 -46 16 -3 18 -1 8 9 -21 21 -15 28 25 32
l37 4 -37 1 c-21 1 -38 7 -38 12 0 6 3 10 8 11 78 7 93 19 23 19 l-52 0 3 -42z"/>
<path d="M832 1403 c1 -37 2 -40 5 -15 2 17 7 32 10 32 3 0 21 -14 40 -31 19
-16 40 -28 46 -26 13 4 19 87 6 87 -5 0 -9 -13 -9 -29 0 -43 -14 -45 -41 -6
-13 19 -32 35 -41 35 -15 0 -18 -8 -16 -47z"/>
<path d="M990 1440 c0 -6 8 -10 18 -8 12 2 18 -5 20 -27 5 -45 22 -56 22 -14
0 27 5 39 23 47 19 9 15 11 -30 11 -31 1 -53 -3 -53 -9z"/>
<path d="M1130 1411 c0 -39 11 -53 25 -31 3 6 17 10 30 10 13 0 27 -4 30 -10
12 -20 20 -9 20 28 l0 37 -53 3 -52 3 0 -40z m88 7 c-7 -20 -68 -23 -68 -4 0
12 10 16 36 16 24 0 34 -4 32 -12z"/>
<path d="M1307 1415 c-21 -45 -22 -62 -2 -45 9 8 30 11 55 7 l40 -5 -22 39
c-27 48 -49 50 -71 4z m51 -8 c2 -12 -3 -17 -17 -17 -23 0 -24 1 -15 25 8 19
28 15 32 -8z"/>
<path d="M1452 1408 c3 -35 7 -42 28 -45 13 -2 31 0 40 3 10 5 4 9 -20 13 -32
5 -35 9 -34 39 1 17 -3 32 -8 32 -5 0 -8 -19 -6 -42z"/>
<path d="M1580 1410 c0 -22 5 -40 10 -40 6 0 10 18 10 40 0 22 -4 40 -10 40
-5 0 -10 -18 -10 -40z"/>
<path d="M1650 1442 c0 -4 10 -8 21 -9 29 -2 37 -13 19 -23 -37 -22 -42 -28
-36 -39 4 -6 19 -10 34 -10 17 1 21 3 10 6 -24 6 -23 10 12 40 17 13 30 29 30
34 0 5 -20 9 -45 9 -25 0 -45 -4 -45 -8z"/>
<path d="M1790 1405 c0 -34 4 -45 15 -45 10 0 15 7 13 17 -2 13 6 19 32 24
l35 6 -37 2 c-21 0 -38 6 -38 11 0 11 3 12 42 14 50 3 42 16 -10 16 l-52 0 0
-45z"/>
<path d="M1936 1408 l0 -43 50 -1 c55 -2 74 8 74 40 0 34 -20 46 -74 46 l-51
0 1 -42z m104 7 c0 -22 -17 -35 -45 -35 -49 0 -57 42 -10 52 18 4 55 -7 55
-17z"/>
<path d="M2183 1434 c-8 -22 11 -38 47 -38 16 -1 29 -5 27 -11 -2 -9 -31 -11
-52 -4 -5 2 -11 0 -12 -6 -2 -6 20 -10 50 -10 46 0 52 2 55 23 2 12 -2 22 -9
22 -8 0 -9 3 0 13 16 20 3 27 -51 27 -35 0 -50 -4 -55 -16z m75 -11 c-10 -2
-26 -2 -35 0 -10 3 -2 5 17 5 19 0 27 -2 18 -5z"/>
<path d="M2342 1408 l3 -43 55 0 55 0 3 43 c2 33 0 42 -12 42 -12 0 -16 -10
-16 -35 0 -32 -2 -35 -30 -35 -28 0 -30 3 -30 35 0 25 -4 35 -16 35 -12 0 -14
-9 -12 -42z"/>
<path d="M2500 1406 c0 -45 7 -55 26 -37 5 5 25 11 44 13 32 3 35 6 35 33 0
29 -2 30 -52 33 l-53 3 0 -45z m80 9 c0 -9 -9 -15 -25 -15 -16 0 -25 6 -25 15
0 9 9 15 25 15 16 0 25 -6 25 -15z"/>
<path d="M2650 1406 c0 -34 4 -46 15 -46 8 0 15 4 15 9 0 6 17 11 38 13 34 3
37 6 37 33 0 29 -2 30 -52 33 l-53 3 0 -45z m80 9 c0 -9 -9 -15 -25 -15 -16 0
-25 6 -25 15 0 9 9 15 25 15 16 0 25 -6 25 -15z"/>
<path d="M2800 1405 l0 -45 45 0 c25 0 45 5 45 10 0 6 -13 10 -30 10 -28 0
-30 3 -30 35 0 24 -5 35 -15 35 -11 0 -15 -12 -15 -45z"/>
<path d="M2924 1419 c14 -17 26 -37 26 -45 0 -8 5 -14 10 -14 6 0 10 5 10 11
0 6 12 26 26 45 28 36 16 48 -19 17 -18 -17 -19 -17 -32 0 -6 9 -20 17 -29 17
-15 0 -14 -5 8 -31z"/>
<path d="M3147 1443 c-9 -8 -9 -46 -1 -67 9 -22 114 -23 114 -1 0 12 -9 13
-45 8 -44 -6 -45 -5 -45 22 0 27 1 28 45 22 36 -5 45 -4 45 8 0 11 -13 15 -53
15 -30 0 -57 -3 -60 -7z"/>
<path d="M3304 1408 c0 -23 7 -43 14 -46 6 -2 12 3 12 12 0 11 9 16 30 16 20
0 30 -5 30 -15 0 -8 7 -15 15 -15 11 0 15 12 15 45 0 33 -4 45 -15 45 -8 0
-15 -7 -15 -15 0 -10 -10 -15 -30 -15 -20 0 -30 5 -30 15 0 8 -6 15 -14 15
-10 0 -13 -12 -12 -42z"/>
<path d="M3482 1409 c-26 -44 -22 -60 8 -41 24 15 57 16 65 2 3 -5 13 -10 20
-10 12 0 10 10 -7 45 -29 59 -54 60 -86 4z m56 -7 c2 -7 -3 -12 -12 -12 -9 0
-16 7 -16 16 0 17 22 14 28 -4z"/>
<path d="M3630 1405 c0 -25 5 -45 10 -45 6 0 10 20 10 45 0 25 -4 45 -10 45
-5 0 -10 -20 -10 -45z"/>
<path d="M3700 1404 c0 -32 4 -44 13 -41 6 2 12 13 12 25 1 33 9 33 30 1 15
-22 27 -29 45 -27 22 3 25 9 28 46 2 33 0 42 -12 42 -11 0 -16 -10 -16 -32
l-1 -33 -28 33 c-15 18 -37 32 -49 32 -19 0 -22 -5 -22 -46z"/>
<path d="M3953 1434 c-8 -22 6 -32 52 -36 55 -4 45 -23 -12 -21 -30 1 -42 -2
-36 -8 6 -6 30 -9 54 -7 36 2 45 7 47 25 3 19 -2 22 -40 25 -54 4 -52 24 3 21
22 -1 37 2 34 8 -11 16 -95 11 -102 -7z"/>
<path d="M4112 1408 c3 -38 6 -43 28 -45 14 -1 18 0 8 3 -32 10 -20 33 20 37
l37 4 -38 1 c-26 1 -37 6 -35 14 3 7 19 12 36 12 18 -1 32 3 32 7 0 5 -21 9
-46 9 l-45 0 3 -42z"/>
<path d="M4260 1409 c0 -34 3 -40 12 -31 17 17 48 15 69 -4 17 -15 18 -14 16
27 l-2 44 -47 3 -48 3 0 -42z m80 5 c0 -11 -8 -14 -32 -12 -46 4 -49 28 -4 28
26 0 36 -4 36 -16z"/>
<path d="M4427 1405 c13 -25 31 -45 39 -45 11 0 54 67 54 85 0 17 -19 0 -33
-31 -19 -39 -29 -38 -47 6 -7 16 -18 30 -26 30 -8 0 -5 -14 13 -45z"/>
<path d="M4570 1410 c0 -22 5 -40 10 -40 6 0 10 18 10 40 0 22 -4 40 -10 40
-5 0 -10 -18 -10 -40z"/>
<path d="M4644 1436 c-3 -8 -4 -27 -2 -43 3 -25 7 -28 47 -31 24 -2 48 1 54 7
16 16 0 26 -18 11 -9 -7 -25 -10 -41 -6 -20 5 -25 12 -22 34 2 22 8 27 28 26
14 -1 33 -5 44 -9 14 -6 18 -4 14 6 -7 20 -96 25 -104 5z"/>
<path d="M4800 1405 l0 -45 48 1 c43 2 44 2 13 8 -49 9 -51 29 -4 34 l38 4
-38 1 c-51 3 -44 25 9 33 38 6 37 6 -13 8 l-53 1 0 -45z"/>
<path d="M4944 1435 c-10 -24 5 -35 47 -35 29 0 39 -4 39 -16 0 -14 -8 -16
-47 -10 -34 4 -44 3 -36 -5 5 -5 30 -9 54 -7 36 2 45 7 47 25 3 19 -2 22 -40
25 -54 4 -52 24 3 21 22 -1 37 2 34 8 -10 15 -95 11 -101 -6z"/>
<path d="M5230 1407 l0 -44 45 0 c25 0 42 3 39 8 -3 5 -11 9 -17 8 -39 -5 -47
2 -47 36 0 19 -4 35 -10 35 -5 0 -10 -19 -10 -43z"/>
<path d="M5362 1408 l3 -43 43 -1 c44 -2 51 7 9 12 -12 1 -25 3 -29 3 -5 1 -8
17 -8 36 0 19 -5 35 -11 35 -6 0 -9 -17 -7 -42z"/>
<path d="M5490 1425 c-15 -41 3 -65 48 -65 39 0 71 14 59 26 -3 4 -13 1 -21
-5 -26 -22 -61 -9 -64 23 -4 29 -3 29 43 24 32 -4 45 -2 42 6 -2 6 -25 12 -50
14 -43 3 -48 1 -57 -23z"/>
<path d="M5107 1360 c3 -11 9 -17 14 -14 14 8 10 34 -5 34 -9 0 -12 -7 -9 -20z"/>
<path d="M743 1363 c9 -2 23 -2 30 0 6 3 -1 5 -18 5 -16 0 -22 -2 -12 -5z"/>
<path d="M1843 1363 c9 -2 23 -2 30 0 6 3 -1 5 -18 5 -16 0 -22 -2 -12 -5z"/>
<path d="M510 1230 c0 -7 857 -10 2550 -10 1693 0 2550 3 2550 10 0 7 -857 10
-2550 10 -1693 0 -2550 -3 -2550 -10z"/>
<path d="M914 1096 c-8 -21 -1 -67 11 -67 6 0 13 10 16 23 6 23 6 23 19 -4 16
-35 25 -35 47 -1 17 26 18 26 23 4 8 -34 25 -26 28 14 4 48 -23 59 -53 21
l-22 -27 -17 25 c-18 28 -44 34 -52 12z"/>
<path d="M1110 1065 l0 -45 44 0 c25 0 48 5 51 10 4 6 -11 10 -36 10 -48 0
-43 16 6 23 27 4 26 4 -7 6 -48 1 -50 21 -3 21 19 0 35 5 35 10 0 6 -20 10
-45 10 l-45 0 0 -45z"/>
<path d="M1254 1096 c-8 -21 -1 -67 11 -67 6 0 12 10 15 22 5 22 6 22 23 -4
22 -34 31 -34 46 -1 12 27 26 25 26 -3 0 -9 6 -18 13 -20 8 -3 12 9 12 41 0
39 -3 46 -20 46 -12 0 -25 -10 -32 -25 -6 -14 -14 -25 -18 -25 -4 0 -15 11
-24 25 -18 28 -44 33 -52 11z"/>
<path d="M1450 1065 l0 -46 53 3 52 3 0 40 0 40 -52 3 -53 3 0 -46z m80 15 c0
-5 -11 -10 -25 -10 -14 0 -25 5 -25 10 0 6 11 10 25 10 14 0 25 -4 25 -10z m0
-30 c0 -5 -11 -10 -25 -10 -14 0 -25 5 -25 10 0 6 11 10 25 10 14 0 25 -4 25
-10z"/>
<path d="M1614 1096 c-3 -8 -4 -27 -2 -43 3 -25 7 -28 46 -31 25 -2 42 1 42 7
0 6 -13 11 -30 11 -40 0 -38 18 3 23 l32 4 -32 1 c-41 2 -44 22 -3 22 17 0 30
5 30 10 0 16 -80 12 -86 -4z"/>
<path d="M1760 1065 c0 -25 5 -45 10 -45 6 0 10 5 10 10 0 6 14 10 30 10 17 0
30 -5 30 -11 0 -25 23 0 25 27 3 42 -11 54 -61 54 l-44 0 0 -45z m78 13 c-3
-7 -15 -13 -28 -13 -13 0 -25 6 -27 13 -3 8 6 12 27 12 21 0 30 -4 28 -12z"/>
<path d="M2007 1102 c-14 -3 -17 -11 -15 -40 4 -35 28 -59 28 -28 0 11 9 16
30 16 17 0 30 5 30 10 0 6 -13 10 -30 10 -16 0 -30 5 -30 10 0 6 14 10 32 10
17 0 28 3 25 6 -8 8 -47 12 -70 6z"/>
<path d="M2142 1101 c-8 -5 -12 -22 -10 -42 l3 -34 55 0 55 0 3 34 c4 40 -9
51 -58 51 -19 0 -41 -4 -48 -9z m76 -38 c3 -20 -1 -23 -27 -23 -23 0 -31 5
-31 18 0 25 10 33 35 30 12 -2 21 -12 23 -25z"/>
<path d="M2317 1103 c-14 -4 -17 -13 -15 -41 3 -36 4 -37 49 -40 33 -2 50 2
59 13 13 15 10 16 -34 10 -46 -7 -48 -7 -44 16 3 21 8 24 41 22 20 -1 37 1 37
6 0 18 -49 25 -93 14z"/>
<path d="M2631 1101 c-25 -16 -4 -41 33 -41 19 0 38 -5 42 -11 4 -7 -8 -10
-37 -8 -25 2 -43 -1 -42 -6 2 -6 25 -11 53 -13 48 -3 50 -2 50 22 0 24 -4 26
-40 26 -23 0 -40 5 -40 11 0 8 14 10 40 6 22 -3 40 -2 40 3 0 19 -73 27 -99
11z"/>
<path d="M2823 1102 c-43 -3 -43 -3 -43 -43 l0 -39 50 0 c28 0 50 5 50 10 0 6
-16 10 -35 10 -44 0 -46 17 -2 23 l32 4 -32 1 c-45 3 -42 20 5 24 20 2 33 5
27 8 -5 3 -29 4 -52 2z"/>
<path d="M2953 1102 c-19 -3 -23 -10 -23 -43 l0 -39 55 0 c51 0 55 2 61 27 12
48 -21 68 -93 55z m65 -39 c3 -20 -1 -23 -27 -23 -27 0 -31 4 -31 26 0 22 4
25 28 22 19 -2 28 -9 30 -25z"/>
<path d="M3314 1096 c-9 -23 0 -69 14 -74 8 -2 12 7 12 30 l0 33 20 -32 c24
-40 37 -41 53 -7 l12 27 5 -23 c10 -42 30 -35 30 9 0 63 -38 67 -64 7 -3 -6
-14 1 -26 17 -24 29 -47 35 -56 13z"/>
<path d="M3517 1103 c-4 -3 -7 -24 -7 -45 l0 -38 50 0 c28 0 50 5 50 10 0 6
-16 10 -35 10 -44 0 -46 17 -2 23 l32 4 -32 1 c-44 3 -42 22 2 22 19 0 35 5
35 10 0 11 -83 14 -93 3z"/>
<path d="M3660 1065 c0 -25 5 -45 10 -45 6 0 10 11 10 25 0 14 4 25 8 25 5 0
14 -11 20 -25 15 -33 28 -31 49 8 l18 32 3 -32 c5 -49 22 -40 22 12 0 38 -3
45 -20 45 -12 0 -25 -10 -32 -25 -6 -14 -14 -25 -18 -25 -4 0 -12 11 -18 25
-7 15 -20 25 -32 25 -17 0 -20 -7 -20 -45z"/>
<path d="M3860 1066 l0 -46 51 0 50 0 -3 43 -3 42 -47 3 -48 3 0 -45z m70 14
c0 -5 -11 -10 -25 -10 -14 0 -25 5 -25 10 0 6 11 10 25 10 14 0 25 -4 25 -10z
m10 -30 c0 -5 -13 -10 -30 -10 -16 0 -30 5 -30 10 0 6 14 10 30 10 17 0 30 -4
30 -10z"/>
<path d="M4020 1065 l0 -45 45 0 c25 0 45 5 45 10 0 6 -16 10 -35 10 -47 0
-45 18 3 23 l37 4 -37 1 c-48 2 -50 22 -2 22 21 0 33 4 29 10 -3 6 -24 10 -46
10 l-39 0 0 -45z"/>
<path d="M4160 1065 c0 -42 11 -58 25 -35 9 14 48 13 63 -2 7 -7 12 -10 13 -7
12 83 8 89 -58 89 l-43 0 0 -45z m80 10 c0 -9 -9 -15 -25 -15 -16 0 -25 6 -25
15 0 9 9 15 25 15 16 0 25 -6 25 -15z"/>
<path d="M4427 1103 c-14 -4 -17 -13 -15 -41 l3 -37 50 0 c50 0 50 0 53 34 5
46 -25 61 -91 44z m57 -19 c9 -3 16 -15 16 -25 0 -14 -7 -19 -29 -19 -33 0
-46 13 -37 35 6 16 24 19 50 9z"/>
<path d="M4627 1081 c-14 -37 -27 -40 -27 -6 0 15 -6 25 -14 25 -11 0 -12 -8
-4 -40 12 -48 39 -54 55 -12 l10 27 11 -27 c6 -16 18 -28 26 -28 12 0 36 47
36 71 0 17 -19 9 -25 -11 -7 -23 -25 -27 -25 -6 0 7 -7 19 -15 26 -13 11 -17
8 -28 -19z"/>
<path d="M4776 1102 c-3 -3 -6 -23 -6 -44 0 -27 4 -38 15 -38 10 0 15 10 15
27 l0 27 28 -27 c42 -40 62 -36 62 13 0 28 -4 40 -14 40 -8 0 -13 -8 -11 -17
4 -31 -6 -35 -26 -10 -18 24 -53 40 -63 29z"/>
<path d="M4945 1102 c-3 -3 -5 -23 -5 -44 l0 -38 50 0 c28 0 50 5 50 10 0 6
-16 10 -35 10 -47 0 -45 18 3 23 l37 4 -37 1 c-49 2 -50 22 -1 22 20 0 33 3
30 6 -8 8 -85 13 -92 6z"/>
<path d="M5118 1102 c-25 -3 -28 -7 -28 -43 l0 -39 49 0 c53 0 68 11 67 50 -1
19 -8 25 -31 30 -16 3 -42 4 -57 2z m62 -42 c0 -16 -7 -20 -35 -20 -28 0 -35
4 -35 20 0 16 7 20 35 20 28 0 35 -4 35 -20z"/>
<path d="M2460 1071 c0 -38 20 -53 67 -49 36 3 38 5 41 41 2 26 -1 37 -10 37
-8 0 -14 -11 -13 -27 0 -23 -5 -29 -27 -31 -25 -3 -28 0 -28 27 0 21 -5 31
-15 31 -10 0 -15 -10 -15 -29z"/>
<path d="M3160 1075 c-10 -11 -10 -19 -2 -27 15 -15 44 -2 40 19 -4 23 -22 27
-38 8z"/>
<path d="M1740 886 c0 -7 147 -104 258 -171 585 -348 1282 -511 1932 -451 158
15 365 57 494 101 90 31 78 31 -59 0 -154 -34 -291 -46 -505 -44 -217 2 -307
10 -490 45 -412 79 -815 245 -1143 470 l-79 54 -204 0 c-112 0 -204 -2 -204
-4z m257 -121 c0 -8 -4 -12 -9 -9 -5 3 -6 10 -3 15 9 13 12 11 12 -6z"/>
<path d="M2310 870 c14 -10 70 -46 125 -78 558 -331 1215 -468 1807 -378 355
54 676 205 883 415 l59 61 -311 0 -310 0 -76 -45 c-211 -127 -499 -206 -809
-221 -348 -17 -780 71 -1122 230 -74 34 -85 36 -175 36 l-96 0 25 -20z"/>
</g>
</svg>
